<svg version="1" xmlns="http://www.w3.org/2000/svg" width="1597.333" height="1597.333" viewBox="0 0 1198.000000 1198.000000"><path d="M361 141.7c-4.7 3.1-43.8 30-87 59.7-43.2 29.7-91.9 63.1-108.3 74.3-46.7 31.8-57.4 39.3-58.9 41.1-1.6 1.8-22.2 123.5-21.6 127.2.3 1.9 21.4 25.9 84.1 95.7 25 27.7 32.3 35.3 34.2 35.3 1.7 0 10.4-7.2 30.7-25.2 15.6-13.9 40.5-36 55.3-49.3 14.9-13.2 27.8-24.6 28.7-25.3 1.7-1.4 12 10.8 81.9 97.3 15.1 18.7 31.9 39.5 37.4 46.3 5.5 6.8 10.8 13.4 11.7 14.6l1.8 2.3-14.4 10.1c-7.8 5.5-14.7 10.7-15.3 11.4-1.1 1.3-20.3 114.1-20.3 118.9 0 3.4 1.4 4.6 23 19l18.5 12.4-.8 12.3c-.5 6.8-.6 13-.3 13.8.3.9 7.2 4.7 15.3 8.6 8.2 3.9 15.1 7.5 15.5 8.2.4.6 4.6 10.8 9.4 22.6 4.7 11.8 9.4 22.4 10.5 23.6 1.1 1.1 4.1 2.6 6.7 3.2 2.6.7 10.6 2.9 17.7 5l13 3.8 5.1 10.4c2.8 5.8 5.7 11 6.5 11.6.8.6 9.3 3 19 5.4l17.6 4.4 23.9-2.8 23.9-2.8 11-5.9c6.1-3.2 13.3-7.2 16-8.7 2.8-1.5 8.4-4.7 12.5-6.9l7.6-4.1 14.9 18.6c49.7 61.9 56.9 70.5 60.1 71.8 11.5 4.8 33.1-3 56-20.2 4-3 7.4-5.4 7.7-5.4.3 0 13 8.8 28.2 19.5 15.1 10.7 27.8 19.5 28.1 19.5.3 0 9.9 6.5 21.4 14.5 12.9 9 21.8 14.5 23.3 14.5 2 0 10.3-9.8 48-56.8 25-31.2 62.9-78.3 84.1-104.7 24.7-30.8 38.6-48.8 38.6-50.2 0-1.3-1-2.9-2.2-3.7-1.3-.8-21.6-9.6-45.3-19.6-72.3-30.6-214.9-90.7-216.6-91.3-.9-.3-2.1-2.3-2.6-4.4-.6-2.1-4.9-17.3-9.7-33.8-6.1-21-9.4-30.7-10.9-32.3-1.2-1.3-8.3-6.7-15.7-12-10.8-7.8-44.1-31.7-107.8-77.7-2.2-1.6-6.3-2.4-18.7-3.8-8.8-.9-34.4-3.7-57-6.2-22.5-2.5-42.2-4.5-43.7-4.5-2.3 0-3.9 1.6-9.9 9.5-3.9 5.2-7.3 9.5-7.4 9.5-.4 0-18.9-20.9-88-99-14.3-16.2-31.6-35.6-38.4-43.3l-12.4-13.9 2.4-2.2c1.3-1.3 14.6-13.1 29.4-26.3l27-24.1 8.5-16.8c10.3-20.4 28.1-54.9 29.7-57.7 1.7-3 .2-6-7.6-14.6-13.7-15.3-94.9-106.9-103.1-116.4-6.5-7.4-9.1-9.7-11-9.7-1.4 0-6.3 2.5-11 5.7zm481.7 780c-.2 1.6-.4.5-.4-2.2 0-2.8.2-4 .4-2.8.2 1.3.2 3.5 0 5z"/></svg>